<svg width="323" height="255" viewBox="0 0 323 255" fill="none" xmlns="http://www.w3.org/2000/svg">
<path d="M179.072 63.0862C182.093 63.0862 184.939 63.662 187.612 64.8136C190.284 65.9652 192.608 67.5198 194.583 69.4776C196.559 71.4353 198.127 73.7385 199.289 76.3872C200.451 78.9783 201.032 81.7709 201.032 84.7651C201.032 87.7593 200.451 90.5807 199.289 93.2294C198.127 95.8781 196.559 98.1813 194.583 100.139C192.608 102.097 190.284 103.651 187.612 104.803C184.939 105.955 182.093 106.53 179.072 106.53H174.686H161.992L166.262 96.166H174.686H179.072C182.209 96.166 184.91 95.0431 187.176 92.7975C189.442 90.5519 190.575 87.8744 190.575 84.7651C190.575 81.5982 189.442 78.9495 187.176 76.819C184.91 74.5734 182.209 73.4506 179.072 73.4506H166.784V123.545H156.327V63.0862H179.072Z" fill="white"/>
<g filter="url(#filter0_d)">
<path d="M173.075 96.1659C173.376 96.1695 173.666 96.1728 173.945 96.176C179.849 96.2426 181.033 96.2095 183.488 95.3022C183.923 100.182 186.32 103.637 187.214 104.976C184.556 105.966 182.1 106.629 177.344 106.566C176.913 106.56 176.463 106.548 175.993 106.53C175.47 105.71 173.553 101.262 173.075 96.1659Z" fill="#C4C4C4"/>
</g>
<path fill-rule="evenodd" clip-rule="evenodd" d="M173.068 93.2296C173.068 76.5342 186.603 63 203.298 63H292.029C308.725 63 322.259 76.5342 322.259 93.2296C322.259 109.925 308.725 123.459 292.029 123.459H203.298C186.603 123.459 173.068 109.925 173.068 93.2296ZM183.263 93.3592C183.263 82.3641 192.177 73.4508 203.172 73.4508H292.154C303.149 73.4508 312.062 82.3641 312.062 93.3592C312.062 104.354 303.149 113.268 292.154 113.268H203.172C192.177 113.268 183.263 104.354 183.263 93.3592ZM291.758 110.072C301.143 110.072 308.751 102.531 308.751 93.2296C308.751 83.9279 301.143 76.3874 291.758 76.3874C282.373 76.3874 274.765 83.9279 274.765 93.2296C274.765 102.531 282.373 110.072 291.758 110.072Z" fill="#F2994A"/>
<path fill-rule="evenodd" clip-rule="evenodd" d="M173.068 93.2296C173.068 76.5342 186.603 63 203.298 63H292.029C308.725 63 322.259 76.5342 322.259 93.2296C322.259 109.925 308.725 123.459 292.029 123.459H203.298C186.603 123.459 173.068 109.925 173.068 93.2296ZM183.263 93.3592C183.263 82.3641 192.177 73.4508 203.172 73.4508H292.154C303.149 73.4508 312.062 82.3641 312.062 93.3592C312.062 104.354 303.149 113.268 292.154 113.268H203.172C192.177 113.268 183.263 104.354 183.263 93.3592ZM291.758 110.072C301.143 110.072 308.751 102.531 308.751 93.2296C308.751 83.9279 301.143 76.3874 291.758 76.3874C282.373 76.3874 274.765 83.9279 274.765 93.2296C274.765 102.531 282.373 110.072 291.758 110.072Z" fill="url(#paint0_linear)"/>
<g filter="url(#filter1_d)">
<path d="M189.396 79.1513C189.324 79.2205 189.251 79.2908 189.177 79.3622C188.652 78.4454 187.975 77.5978 187.148 76.8194C185.213 74.9016 182.96 73.8027 180.389 73.5227C180.462 73.4376 180.536 73.3521 180.612 73.2663C189.211 63.5071 200.817 68.2748 189.396 79.1513Z" fill="white"/>
</g>
<path d="M179.043 63C182.064 63 184.911 63.5758 187.583 64.7274C190.255 65.879 192.579 67.4337 194.555 69.3914C196.53 71.3491 198.098 73.6523 199.26 76.301C200.422 78.8921 201.003 81.6847 201.003 84.6789C201.003 87.6731 200.422 90.4945 199.26 93.1432C198.098 95.7919 196.53 98.0951 194.555 100.053C192.579 102.011 190.255 103.565 187.583 104.717C187.45 104.774 187.316 104.83 187.182 104.885C186.487 103.933 184.858 101.634 183.956 97.8936C183.757 97.0689 183.608 96.1831 183.499 95.2161C184.832 94.6548 186.028 93.8209 187.147 92.7113C189.413 90.4657 190.546 87.7882 190.546 84.6789C190.546 81.512 189.413 78.8633 187.147 76.7329C184.882 74.4872 182.18 73.3644 179.043 73.3644H166.756V123.459H156.298V63H179.043Z" fill="white"/>
<path d="M142.219 63H153.635V123.459H143.178V80.6195L123.091 107.135L103.004 80.6195V123.459H92.5469V63H103.963L123.047 89.7748L142.219 63Z" fill="white"/>
<path d="M89.933 73.3644H59.3455V96.0798H82.09L84.7043 106.444H59.3455V113.095H89.933V123.459H48.8882V63H89.933V73.3644Z" fill="white"/>
<path d="M46.2734 63V73.3644H28.4089V123.459H17.9517V73.3644H0V63H17.9517H28.4089H46.2734Z" fill="white"/>
<defs>
<filter id="filter0_d" x="65.6553" y="28.1651" width="228.978" height="226.106" filterUnits="userSpaceOnUse" color-interpolation-filters="sRGB">
<feFlood flood-opacity="0" result="BackgroundImageFix"/>
<feColorMatrix in="SourceAlpha" type="matrix" values="0 0 0 0 0 0 0 0 0 0 0 0 0 0 0 0 0 0 127 0"/>
<feOffset dy="40.2823"/>
<feGaussianBlur stdDeviation="53.7097"/>
<feColorMatrix type="matrix" values="0 0 0 0 0 0 0 0 0 0 0 0 0 0 0 0 0 0 0.45 0"/>
<feBlend mode="normal" in2="BackgroundImageFix" result="effect1_dropShadow"/>
<feBlend mode="normal" in="SourceGraphic" in2="effect1_dropShadow" result="shape"/>
</filter>
<filter id="filter1_d" x="72.9697" y="0.834534" width="228.61" height="226.229" filterUnits="userSpaceOnUse" color-interpolation-filters="sRGB">
<feFlood flood-opacity="0" result="BackgroundImageFix"/>
<feColorMatrix in="SourceAlpha" type="matrix" values="0 0 0 0 0 0 0 0 0 0 0 0 0 0 0 0 0 0 127 0"/>
<feOffset dy="40.2823"/>
<feGaussianBlur stdDeviation="53.7097"/>
<feColorMatrix type="matrix" values="0 0 0 0 0 0 0 0 0 0 0 0 0 0 0 0 0 0 0.25 0"/>
<feBlend mode="normal" in2="BackgroundImageFix" result="effect1_dropShadow"/>
<feBlend mode="normal" in="SourceGraphic" in2="effect1_dropShadow" result="shape"/>
</filter>
<linearGradient id="paint0_linear" x1="176.728" y1="63" x2="247.125" y2="124.08" gradientUnits="userSpaceOnUse">
<stop stop-color="#FF00EE"/>
<stop offset="1" stop-color="#FF00EE" stop-opacity="0"/>
</linearGradient>
</defs>
</svg>
